<?xml version="1.0" encoding="UTF-8"?>
<svg version="1.2" baseProfile="tiny" xmlns="http://www.w3.org/2000/svg" viewBox="0 0 859 464">
<g style="fill: #010101">
	<path d="M120.8,309.3c-13.3,0-20.8-10.7-20.8-24V140h63v-38h-63V28H47v74H0v38h47v151.5 c0,44.9,26.8,63.2,71.2,63.2c8.6,0,20.2-2.4,31.7-5.5l16.6-48.4C154.6,304.2,132.9,309.3,120.8,309.3z"/>
	<polygon points="225,102 225,130.9 234.6,102"/>
	<path d="M496.5,96.1c-29.6,0-61.8,21.9-75.1,46.9c-7.6-36.2-35.2-46.4-71.4-46.4 c-30.6,0-62.2,19.4-75.5,45.4l-1.3-7L224,277.5V352h53V202.2c0-28.6,25.5-59.7,55.7-59.7c30.6,0,41.3,17.8,41.3,48.4V352h53V203.2 c0-31.6,24.3-59.7,56.4-59.7c31.6,0,42.6,16.3,42.6,48.4V352h53V177.7C579,122.1,552.6,96.1,496.5,96.1z"/>
	<path d="M763.2,96.6c-32.1,0-54.1,12.4-72.9,35.4l-10.7-30H640v362h53V325.1 c16,24,39.4,31.6,70,31.6c57.1,0,96-38.2,96-94.3v-74.5C859,132.8,820.3,96.6,763.2,96.6z M806,262.4c0,31.6-27.7,47.4-55.8,47.4 c-30.6-0.5-57.3-17.3-57.3-47.4v-73.9c0-27,27.7-44.9,57.3-44.9c30.1,0,55.8,13.3,55.8,46.4V262.4z"/>
	<path d="M166.6,300.8c4.4-1.3,7.4-2.3,8.1-2.7l11.7,38.3c-6.7,3.2-21.4,9-36.5,13.1L125.4,421h50.1 L225,277.6V130.9L166.6,300.8z"/>
	<polygon points="273.6,135.3 320.1,0 269.5,0 234.6,102 269,102"/>
</g>
</svg>
