<svg xmlns="http://www.w3.org/2000/svg" fill="#010101" viewBox="0 0 859 464"><path d="M120.8 309.3c-13.3 0-20.8-10.7-20.8-24V140h63v-38h-63V28H47v74H0v38h47v151.5c0 44.9 26.8 63.2 71.2 63.2 8.6 0 20.2-2.4 31.7-5.5l16.6-48.4c-11.9 3.4-33.6 8.5-45.7 8.5zM225 102v28.9l9.6-28.9zm271.5-5.9c-29.6 0-61.8 21.9-75.1 46.9-7.6-36.2-35.2-46.4-71.4-46.4-30.6 0-62.2 19.4-75.5 45.4l-1.3-7L224 277.5V352h53V202.2c0-28.6 25.5-59.7 55.7-59.7 30.6 0 41.3 17.8 41.3 48.4V352h53V203.2c0-31.6 24.3-59.7 56.4-59.7 31.6 0 42.6 16.3 42.6 48.4V352h53V177.7c0-55.6-26.4-81.6-82.5-81.6zm266.7.5c-32.1 0-54.1 12.4-72.9 35.4l-10.7-30H640v362h53V325.1c16 24 39.4 31.6 70 31.6 57.1 0 96-38.2 96-94.3v-74.5c0-55.1-38.7-91.3-95.8-91.3zM806 262.4c0 31.6-27.7 47.4-55.8 47.4-30.6-.5-57.3-17.3-57.3-47.4v-73.9c0-27 27.7-44.9 57.3-44.9 30.1 0 55.8 13.3 55.8 46.4v72.4zm-639.4 38.4c4.4-1.3 7.4-2.3 8.1-2.7l11.7 38.3c-6.7 3.2-21.4 9-36.5 13.1L125.4 421h50.1L225 277.6V130.9l-58.4 169.9zm107-165.5L320.1 0h-50.6l-34.9 102H269z"/></svg>
